<svg width="900" height="600" version="1.1" xmlns="http://www.w3.org/2000/svg" desc="Created with imagetracer.js version 1.2.6" ><path fill="rgb(0,0,0)" stroke="rgb(0,0,0)" stroke-width="1" opacity="0" d="M 0 0 L 900 0 L 900 600 L 0 600 L 0 0 Z M 99 122 L 57 161 L 57 289 L 77 336 L 143 336 L 143 290 L 178 290 L 189 333 L 190 336 L 414 336 L 414 433 L 414 433 L 56 433 L 56 440 L 57 440 L 414 440 L 414 441 L 414 478 L 417 479 L 417 518 L 456 518 L 467 513 Q 471 508 473 500 L 473 495 L 470 487 Q 467 481 461 480 L 462 478 L 482 478 L 484 482 L 497 517 L 497 521 L 495 526 L 491 530 L 481 531 Q 484 532 482 538 L 484 539 L 495 539 L 497 538 L 501 534 L 506 524 L 522 481 L 523 478 L 560 478 Q 558 496 566 506 Q 573 516 588 519 L 607 519 Q 619 517 627 510 L 627 482 L 595 482 L 595 491 L 616 491 L 616 504 L 610 508 L 598 511 Q 586 511 580 505 Q 569 497 571 478 L 638 478 L 638 518 L 649 518 L 649 518 L 649 478 L 658 478 L 661 475 L 661 518 L 671 518 L 671 518 L 671 466 L 678 460 L 682 457 L 682 466 L 678 466 L 678 473 L 682 473 L 682 478 L 684 478 L 684 506 L 686 516 L 692 519 L 704 519 L 705 518 L 704 510 L 699 511 L 695 509 L 695 478 L 710 478 L 708 487 L 708 498 L 712 510 Q 716 517 726 519 L 740 519 L 749 514 L 754 506 L 755 500 Q 752 498 746 499 L 742 507 L 736 511 L 727 510 Q 721 507 719 500 L 719 485 L 721 480 L 723 478 L 742 478 L 745 483 Q 750 485 752 482 Q 755 483 754 480 L 754 478 L 761 478 L 761 479 L 761 518 L 771 518 L 771 486 L 773 480 L 775 478 L 793 478 L 794 481 L 794 518 L 795 518 L 805 518 L 805 483 L 804 482 Q 802 476 809 478 L 843 442 L 843 276 L 842 274 L 817 274 L 836 257 L 841 252 L 841 160 L 800 122 L 540 122 L 540 147 L 513 122 L 99 122 Z M 95 446 L 95 518 L 106 518 L 106 489 L 128 489 L 139 487 L 143 485 Q 149 481 151 473 Q 153 460 148 455 Q 144 448 136 446 L 95 446 Z M 366 446 L 366 469 L 359 465 Q 345 463 340 468 Q 332 473 330 484 Q 327 504 336 513 L 347 519 L 360 519 L 364 517 L 366 516 L 367 518 L 376 518 L 376 447 L 376 446 L 366 446 Z M 259 448 L 254 451 L 251 454 L 251 466 L 245 467 L 242 465 Q 233 463 230 466 L 227 470 L 225 471 L 225 466 L 216 466 L 216 518 L 217 518 L 226 518 L 226 489 L 228 480 L 236 474 L 243 476 L 245 472 L 251 473 L 251 512 L 252 515 L 258 519 L 271 519 L 270 510 L 266 511 L 261 508 L 261 474 L 262 473 L 270 473 L 270 466 L 261 466 L 261 449 L 259 448 Z M 176 465 L 167 469 Q 161 473 159 480 L 157 490 L 158 502 L 162 511 Q 166 517 175 519 Q 192 522 200 514 Q 205 509 207 502 L 207 483 L 202 473 Q 197 467 190 465 L 176 465 Z M 293 465 L 283 470 L 276 480 L 274 490 L 275 502 L 279 511 Q 283 517 293 519 Q 307 521 315 516 L 322 508 L 323 503 L 322 501 L 314 501 L 310 507 L 304 511 Q 296 512 293 509 Q 287 505 285 498 L 286 494 L 324 494 L 323 482 L 319 474 Q 313 462 293 465 Z " /><path fill="rgb(0,0,0)" stroke="rgb(0,0,0)" stroke-width="1" opacity="0" d="M 525.5 314 L 526 336.5 L 527 337.5 L 527 374.5 L 525.5 376 L 490 376 L 490 336.5 L 490.5 336 L 500.5 336 L 525.5 314 Z " /><path fill="rgb(0,0,0)" stroke="rgb(0,0,0)" stroke-width="1" opacity="0" d="M 106 455 L 131.5 455 L 138 459.5 Q 140.7 462.8 140 469.5 L 135.5 477 L 125.5 480 L 106 480 L 106 455 Z " /><path fill="rgb(0,0,0)" stroke="rgb(0,0,0)" stroke-width="1" opacity="0" d="M 179.5 473 L 188.5 474 L 195 480.5 Q 198.3 486.3 197 496.5 L 195 503.5 L 188.5 510 L 179.5 511 L 172 506.5 Q 166.3 500.2 168 486.5 Q 169.3 479.8 173.5 476 L 179.5 473 Z " /><path fill="rgb(0,0,0)" stroke="rgb(0,0,0)" stroke-width="1" opacity="0" d="M 295.5 473 L 302.5 473 L 309 476 L 313 486 L 286.5 486 L 286 482.5 L 291.5 475 L 295.5 473 Z " /><path fill="rgb(0,0,0)" stroke="rgb(0,0,0)" stroke-width="1" opacity="0" d="M 350.5 473 L 356.5 473 L 364 479.5 L 366 484.5 L 367 495.5 L 365 503.5 L 360.5 509 Q 357.5 512 350.5 511 L 343 504.5 Q 338.8 498.7 340 487.5 L 343 478.5 L 346.5 475 L 350.5 473 Z " /><path fill="rgb(0,0,0)" stroke="rgb(0,0,0)" stroke-width="1" opacity="0" d="M 493.5 478 L 512 478.5 L 502.5 504 L 493.5 478 Z " /><path fill="rgb(0,0,0)" stroke="rgb(0,0,0)" stroke-width="1" opacity="0" d="M 428 485 L 451.5 485 L 459 489.5 Q 462.3 493.2 461 501.5 L 456.5 507 L 452.5 509 L 428 509 L 428 485 Z " /><path fill="rgb(55,55,54)" stroke="rgb(55,55,54)" stroke-width="1" opacity="0.996078431372549" d="M 105.5 136 L 177 136.5 L 105.5 137 L 105.5 136 Z " /><path fill="rgb(55,55,54)" stroke="rgb(55,55,54)" stroke-width="1" opacity="0.996078431372549" d="M 193.5 136 L 297.5 136 L 299 137.5 L 299 174.5 L 297.5 176 L 234 175.5 L 298 175 L 298 137 L 193 137 L 192.5 256 L 192 137.5 L 193.5 136 Z " /><path fill="rgb(55,55,54)" stroke="rgb(55,55,54)" stroke-width="1" opacity="0.996078431372549" d="M 314.5 136 L 418.5 136 L 420 137.5 L 420 174.5 L 418.5 176 L 355.5 176 L 355 176.5 L 355 190 L 418.5 190 L 420 191.5 L 419.5 224 L 419 191 L 354.5 191 L 354 190.5 L 354 175 L 419 175 L 419 137 L 314 137 L 314 274 L 418.5 274 L 419 273.5 L 419 239.5 L 420 239.5 L 420 273.5 L 418.5 275 L 314.5 275 L 313 273.5 L 313 137.5 L 314.5 136 Z " /><path fill="rgb(55,55,54)" stroke="rgb(55,55,54)" stroke-width="1" opacity="0.996078431372549" d="M 434.5 136 L 506 136.5 L 434.5 137 L 434.5 136 Z " /><path fill="rgb(55,55,54)" stroke="rgb(55,55,54)" stroke-width="1" opacity="0.996078431372549" d="M 555.5 136 L 594.5 136 L 596 137.5 L 595.5 239 L 595 137 L 555.5 137 L 555 137.5 L 555 273.5 L 554 273.5 L 554 137.5 L 555.5 136 Z " /><path fill="rgb(55,55,54)" stroke="rgb(55,55,54)" stroke-width="1" opacity="0.996078431372549" d="M 610.5 136 L 651 136.5 L 610.5 137 L 610.5 136 Z " /><path fill="rgb(55,55,54)" stroke="rgb(55,55,54)" stroke-width="1" opacity="0.996078431372549" d="M 666.5 136 L 706 136.5 L 666.5 137 L 666.5 136 Z " /><path fill="rgb(55,55,54)" stroke="rgb(55,55,54)" stroke-width="1" opacity="0.996078431372549" d="M 722.5 136 L 793.5 136 L 796 138.5 L 793.5 137 L 722 137 L 722 273.5 L 721 273.5 L 721 137.5 L 722.5 136 Z " /><path fill="rgb(55,55,54)" stroke="rgb(55,55,54)" stroke-width="1" opacity="0.996078431372549" d="M 507.5 137 L 514.5 145 L 507.5 137 Z " /><path fill="rgb(55,55,54)" stroke="rgb(55,55,54)" stroke-width="1" opacity="0.996078431372549" d="M 101.5 139 L 94.5 147 L 101.5 139 Z " /><path fill="rgb(55,55,54)" stroke="rgb(55,55,54)" stroke-width="1" opacity="0.996078431372549" d="M 799.5 141 L 806.5 149 L 799.5 141 Z " /><path fill="rgb(55,55,54)" stroke="rgb(55,55,54)" stroke-width="1" opacity="0.996078431372549" d="M 517.5 146 L 525.5 155 L 517.5 146 Z " /><path fill="rgb(55,55,54)" stroke="rgb(55,55,54)" stroke-width="1" opacity="0.996078431372549" d="M 90.5 149 L 82.5 158 L 90.5 149 Z " /><path fill="rgb(55,55,54)" stroke="rgb(55,55,54)" stroke-width="1" opacity="0.996078431372549" d="M 811.5 152 L 818.5 160 L 811.5 152 Z " /><path fill="rgb(55,55,54)" stroke="rgb(55,55,54)" stroke-width="1" opacity="0.996078431372549" d="M 528.5 156 L 536.5 165 L 528.5 156 Z " /><path fill="rgb(55,55,54)" stroke="rgb(55,55,54)" stroke-width="1" opacity="0.996078431372549" d="M 79.5 159 L 72.5 167 L 79.5 159 Z " /><path fill="rgb(55,55,54)" stroke="rgb(55,55,54)" stroke-width="1" opacity="0.996078431372549" d="M 824.5 164 L 827 166.5 L 827 244.5 L 819 251.5 L 826 244.5 L 826 166.5 L 824.5 164 Z " /><path fill="rgb(55,55,54)" stroke="rgb(55,55,54)" stroke-width="1" opacity="0.996078431372549" d="M 114.5 175 L 178 175.5 L 114 176 L 114 189.5 L 114.5 190 L 176.5 190 L 176.5 191 L 113.5 191 L 113 190.5 L 113 176.5 L 114.5 175 Z " /><path fill="rgb(55,55,54)" stroke="rgb(55,55,54)" stroke-width="1" opacity="0.996078431372549" d="M 479.5 175 L 493.5 175 L 494 175.5 L 494 238.5 L 493 238.5 L 493 176.5 L 492.5 176 L 479 176 L 478.5 239 L 478 176.5 L 479.5 175 Z " /><path fill="rgb(55,55,54)" stroke="rgb(55,55,54)" stroke-width="1" opacity="0.996078431372549" d="M 766.5 175 L 780.5 175 L 782 176.5 L 781.5 239 L 781 176 L 766.5 176 L 766.5 175 Z " /><path fill="rgb(55,55,54)" stroke="rgb(55,55,54)" stroke-width="1" opacity="0.996078431372549" d="M 234.5 190 L 297.5 190 L 299 191.5 L 298.5 224 L 298 191 L 234.5 191 L 234.5 190 Z " /><path fill="rgb(55,55,54)" stroke="rgb(55,55,54)" stroke-width="1" opacity="0.996078431372549" d="M 113 224 L 115 224.5 L 114 225.5 L 114 273.5 L 112.5 275 L 73.5 275 L 72 273.5 L 73.5 274 L 113 274 L 113 224 Z " /><path fill="rgb(55,55,54)" stroke="rgb(55,55,54)" stroke-width="1" opacity="0.996078431372549" d="M 354 224 L 356 224.5 L 355 225.5 L 354.5 239 L 354 224 Z " /><path fill="rgb(55,55,54)" stroke="rgb(55,55,54)" stroke-width="1" opacity="0.996078431372549" d="M 298.5 239 L 299 273.5 L 297.5 275 L 193.5 275 L 193.5 274 L 297.5 274 L 298 273.5 L 298.5 239 Z " /><path fill="rgb(55,55,54)" stroke="rgb(55,55,54)" stroke-width="1" opacity="0.996078431372549" d="M 650.5 245 L 647.5 249 L 650.5 245 Z " /><path fill="rgb(55,55,54)" stroke="rgb(55,55,54)" stroke-width="1" opacity="0.996078431372549" d="M 533.5 249 L 527.5 256 L 533.5 249 Z " /><path fill="rgb(55,55,54)" stroke="rgb(55,55,54)" stroke-width="1" opacity="0.996078431372549" d="M 644.5 250 L 637.5 258 L 644.5 250 Z " /><path fill="rgb(55,55,54)" stroke="rgb(55,55,54)" stroke-width="1" opacity="0.996078431372549" d="M 815.5 254 L 809.5 261 L 815.5 254 Z " /><path fill="rgb(55,55,54)" stroke="rgb(55,55,54)" stroke-width="1" opacity="0.996078431372549" d="M 522.5 259 L 517.5 265 L 522.5 259 Z " /><path fill="rgb(55,55,54)" stroke="rgb(55,55,54)" stroke-width="1" opacity="0.996078431372549" d="M 632.5 261 L 625.5 269 L 632.5 261 Z " /><path fill="rgb(55,55,54)" stroke="rgb(55,55,54)" stroke-width="1" opacity="0.996078431372549" d="M 804.5 264 L 796.5 273 L 804.5 264 Z " /><path fill="rgb(55,55,54)" stroke="rgb(55,55,54)" stroke-width="1" opacity="0.996078431372549" d="M 512.5 268 L 506.5 275 L 490 274.5 L 506.5 274 L 512.5 268 Z " /><path fill="rgb(55,55,54)" stroke="rgb(55,55,54)" stroke-width="1" opacity="0.996078431372549" d="M 622.5 270 L 619.5 274 L 622.5 270 Z " /><path fill="rgb(55,55,54)" stroke="rgb(55,55,54)" stroke-width="1" opacity="0.996078431372549" d="M 474.5 289 L 476 290.5 L 476 390 L 540 390.5 L 475 391 L 475 290.5 L 474.5 289 Z " /><path fill="rgb(55,55,54)" stroke="rgb(55,55,54)" stroke-width="1" opacity="0.996078431372549" d="M 554.5 289 L 555 426 L 594.5 426 L 595 425.5 L 595 289.5 L 596 289.5 L 596 426.5 L 595.5 427 L 554 427 L 554.5 289 Z " /><path fill="rgb(55,55,54)" stroke="rgb(55,55,54)" stroke-width="1" opacity="0.996078431372549" d="M 610.5 289 L 611 426 L 674.5 426 L 675.5 425 L 674.5 427 L 611.5 427 L 610 425.5 L 610.5 289 Z " /><path fill="rgb(55,55,54)" stroke="rgb(55,55,54)" stroke-width="1" opacity="0.996078431372549" d="M 651.5 289 L 652 391 L 666 391.5 L 652.5 392 L 651 390.5 L 651.5 289 Z " /><path fill="rgb(55,55,54)" stroke="rgb(55,55,54)" stroke-width="1" opacity="0.996078431372549" d="M 827.5 289 L 828 325.5 L 827 325.5 L 827.5 289 Z " /><path fill="rgb(55,55,54)" stroke="rgb(55,55,54)" stroke-width="1" opacity="0.996078431372549" d="M 763.5 327 L 828 327.5 L 763.5 328 L 763.5 327 Z " /><path fill="rgb(55,55,54)" stroke="rgb(55,55,54)" stroke-width="1" opacity="0.996078431372549" d="M 762.5 329 L 763 340.5 L 762 340.5 L 762.5 329 Z " /><path fill="rgb(55,55,54)" stroke="rgb(55,55,54)" stroke-width="1" opacity="0.996078431372549" d="M 827.5 343 L 828 377 L 763 376.5 L 827 376 L 827.5 343 Z " /><path fill="rgb(55,55,54)" stroke="rgb(55,55,54)" stroke-width="1" opacity="0.996078431372549" d="M 762.5 378 L 763 389.5 L 762 389.5 L 762.5 378 Z " /><path fill="rgb(55,55,54)" stroke="rgb(55,55,54)" stroke-width="1" opacity="0.996078431372549" d="M 763.5 391 L 828 391 L 828 424.5 L 827 424.5 L 827 392 L 763.5 392 L 763.5 391 Z " /><path fill="rgb(55,55,54)" stroke="rgb(55,55,54)" stroke-width="1" opacity="0.996078431372549" d="M 706.5 397 L 701.5 403 L 706.5 397 Z " /><path fill="rgb(55,55,54)" stroke="rgb(55,55,54)" stroke-width="1" opacity="0.996078431372549" d="M 698.5 404 L 690.5 413 L 698.5 404 Z " /><path fill="rgb(55,55,54)" stroke="rgb(55,55,54)" stroke-width="1" opacity="0.996078431372549" d="M 686.5 415 L 680.5 422 L 686.5 415 Z " /><path fill="rgb(55,55,54)" stroke="rgb(55,55,54)" stroke-width="1" opacity="0.996078431372549" d="M 434.5 426 L 540 426.5 L 434.5 427 L 434.5 426 Z " /><path fill="rgb(55,55,54)" stroke="rgb(55,55,54)" stroke-width="1" opacity="0.996078431372549" d="M 722.5 426 L 828 426.5 L 722.5 427 L 722.5 426 Z " /><path fill="rgb(253,253,247)" stroke="rgb(253,253,247)" stroke-width="1" opacity="1" d="M 104.5 137 L 178 137 L 178 175 L 114.5 175 L 113 176.5 L 113 190.5 L 113.5 191 L 178 191 L 178 222.5 L 176.5 224 L 113 224 L 113 274 L 73.5 274 L 72 272.5 L 72 167.5 L 104.5 137 Z " /><path fill="rgb(253,253,247)" stroke="rgb(253,253,247)" stroke-width="1" opacity="1" d="M 193 137 L 298 137 L 298 175 L 234.5 175 L 234 175.5 L 234 191 L 298 191 L 298 224 L 234.5 224 L 234 224.5 L 234 239 L 298 239 L 298 274 L 193 274 L 193 137 Z " /><path fill="rgb(253,253,247)" stroke="rgb(253,253,247)" stroke-width="1" opacity="1" d="M 314 137 L 419 137 L 419 175 L 354.5 175 L 354 175.5 L 354 191 L 419 191 L 419 224 L 354.5 224 L 354 224.5 L 354 239 L 419 239 L 419 274 L 314 274 L 314 137 Z " /><path fill="rgb(253,253,247)" stroke="rgb(253,253,247)" stroke-width="1" opacity="1" d="M 434 137 L 506.5 137 L 539 166.5 L 539 244.5 L 534.5 249 L 506.5 274 L 435.5 274 L 434 272.5 L 434 137 Z M 480 175 L 478 177 L 478 239 L 479 239 L 494 239 L 494 176 L 494 175 L 480 175 Z " /><path fill="rgb(253,253,247)" stroke="rgb(253,253,247)" stroke-width="1" opacity="1" d="M 555 137 L 595 137 L 595 238.5 L 595.5 239 L 610 239 L 610 137 L 651 137 L 651 244.5 L 645.5 250 L 618.5 274 L 555 274 L 555 137 Z " /><path fill="rgb(253,253,247)" stroke="rgb(253,253,247)" stroke-width="1" opacity="1" d="M 666 137 L 706.5 137 L 707 137.5 L 707 274 L 666.5 274 L 666 273.5 L 666 137 Z " /><path fill="rgb(253,253,247)" stroke="rgb(253,253,247)" stroke-width="1" opacity="1" d="M 722 137 L 793.5 137 L 826 166.5 L 826 244.5 L 816.5 254 L 793.5 274 L 722 274 L 722 137 Z M 766 175 L 766 239 L 782 239 L 782 239 L 782 177 L 781 175 L 766 175 Z " /><path fill="rgb(253,253,247)" stroke="rgb(253,253,247)" stroke-width="1" opacity="1" d="M 434 289 L 473.5 289 L 475 290.5 L 475 391 L 540 391 L 540 426 L 434 426 L 434 289 Z " /><path fill="rgb(253,253,247)" stroke="rgb(253,253,247)" stroke-width="1" opacity="1" d="M 555 289 L 594.5 289 L 595 289.5 L 595 426 L 555.5 426 L 555 425.5 L 555 289 Z " /><path fill="rgb(253,253,247)" stroke="rgb(253,253,247)" stroke-width="1" opacity="1" d="M 611 289 L 651 289 L 651 390.5 L 652.5 392 L 666 392 L 666 290.5 L 667.5 289 L 705.5 289 L 707 290.5 L 707 396.5 L 699.5 404 L 674.5 426 L 611 426 L 611 289 Z " /><path fill="rgb(253,253,247)" stroke="rgb(253,253,247)" stroke-width="1" opacity="1" d="M 722 289 L 827 289 L 827 325.5 L 827.5 327 L 763.5 327 L 763 328.5 L 762 329.5 L 762 340.5 L 763 343 L 827 343 L 827 376 L 763.5 376 L 763 377.5 L 762 378.5 L 762 389.5 L 763 392 L 827 392 L 827 424.5 L 827.5 426 L 722 426 L 722 289 Z " /><path fill="rgb(0,0,0)" stroke="rgb(0,0,0)" stroke-width="1" opacity="0.996078431372549" d="M 98.5 122 L 101 122.5 L 98.5 123 L 88.5 133 L 98.5 122 Z " /><path fill="rgb(0,0,0)" stroke="rgb(0,0,0)" stroke-width="1" opacity="0.996078431372549" d="M 511.5 122 L 539.5 147 L 540.5 122 L 541 148.5 L 536.5 145 L 511.5 123 L 511.5 122 Z " /><path fill="rgb(0,0,0)" stroke="rgb(0,0,0)" stroke-width="1" opacity="0.996078431372549" d="M 798.5 122 L 801 123.5 L 799.5 123 L 798.5 122 Z " /><path fill="rgb(0,0,0)" stroke="rgb(0,0,0)" stroke-width="1" opacity="0.996078431372549" d="M 802.5 124 L 811.5 134 L 802.5 124 Z " /><path fill="rgb(0,0,0)" stroke="rgb(0,0,0)" stroke-width="1" opacity="0.996078431372549" d="M 86.5 133 L 74.5 146 L 58 160.5 L 57.5 289 L 57 160.5 L 86.5 133 Z " /><path fill="rgb(0,0,0)" stroke="rgb(0,0,0)" stroke-width="1" opacity="0.996078431372549" d="M 814.5 135 L 824.5 146 L 814.5 135 Z " /><path fill="rgb(0,0,0)" stroke="rgb(0,0,0)" stroke-width="1" opacity="0.996078431372549" d="M 826.5 146 L 835.5 156 L 826.5 146 Z " /><path fill="rgb(0,0,0)" stroke="rgb(0,0,0)" stroke-width="1" opacity="0.996078431372549" d="M 838.5 157 L 841 160.5 L 840 160.5 L 838.5 157 Z " /><path fill="rgb(0,0,0)" stroke="rgb(0,0,0)" stroke-width="1" opacity="0.996078431372549" d="M 840.5 250 L 841 251.5 L 817 273.5 L 841.5 274 L 843 275.5 L 843 441.5 L 832.5 452 L 842 441.5 L 842 275.5 L 841.5 275 L 815.5 275 L 824.5 265 L 840 251.5 L 840.5 250 Z " /><path fill="rgb(0,0,0)" stroke="rgb(0,0,0)" stroke-width="1" opacity="0.996078431372549" d="M 143.5 289 L 178.5 289 L 179 291.5 L 178 291.5 L 177.5 290 L 143.5 290 L 143.5 289 Z " /><path fill="rgb(0,0,0)" stroke="rgb(0,0,0)" stroke-width="1" opacity="0.996078431372549" d="M 526.5 312 L 527 336.5 L 526 336.5 L 525.5 314 L 523 315.5 L 526.5 312 Z " /><path fill="rgb(0,0,0)" stroke="rgb(0,0,0)" stroke-width="1" opacity="0.996078431372549" d="M 521.5 316 L 513.5 325 L 521.5 316 Z " /><path fill="rgb(0,0,0)" stroke="rgb(0,0,0)" stroke-width="1" opacity="0.996078431372549" d="M 510.5 326 L 502.5 335 L 510.5 326 Z " /><path fill="rgb(0,0,0)" stroke="rgb(0,0,0)" stroke-width="1" opacity="0.996078431372549" d="M 76.5 333 L 78 335.5 L 77 335.5 L 76.5 333 Z " /><path fill="rgb(0,0,0)" stroke="rgb(0,0,0)" stroke-width="1" opacity="0.996078431372549" d="M 414.5 336 L 415 432.5 L 414 432.5 L 414.5 336 Z " /><path fill="rgb(0,0,0)" stroke="rgb(0,0,0)" stroke-width="1" opacity="0.996078431372549" d="M 489.5 336 L 490 376 L 525.5 376 L 526.5 375 L 527 377 L 490.5 377 L 489 375.5 L 489.5 336 Z " /><path fill="rgb(0,0,0)" stroke="rgb(0,0,0)" stroke-width="1" opacity="0.996078431372549" d="M 414.5 439 L 415 477.5 L 414 477.5 L 414.5 439 Z " /><path fill="rgb(0,0,0)" stroke="rgb(0,0,0)" stroke-width="1" opacity="0.996078431372549" d="M 682.5 454 L 683 465.5 L 682 465.5 L 681.5 456 L 677 459.5 L 682.5 454 Z " /><path fill="rgb(0,0,0)" stroke="rgb(0,0,0)" stroke-width="1" opacity="0.996078431372549" d="M 827.5 457 L 817.5 468 L 827.5 457 Z " /><path fill="rgb(0,0,0)" stroke="rgb(0,0,0)" stroke-width="1" opacity="0.996078431372549" d="M 675.5 460 L 670.5 466 L 675.5 460 Z " /><path fill="rgb(0,0,0)" stroke="rgb(0,0,0)" stroke-width="1" opacity="0.996078431372549" d="M 661.5 473 L 657.5 478 L 661.5 473 Z " /><path fill="rgb(0,0,0)" stroke="rgb(0,0,0)" stroke-width="1" opacity="0.996078431372549" d="M 682.5 473 L 683 477.5 L 682 477.5 L 682.5 473 Z " /><path fill="rgb(0,0,0)" stroke="rgb(0,0,0)" stroke-width="1" opacity="0.996078431372549" d="M 812.5 473 L 808.5 478 L 812.5 473 Z " /><path fill="rgb(0,0,0)" stroke="rgb(0,0,0)" stroke-width="1" opacity="1" d="M 101.5 122 L 510.5 122 L 540.5 149 L 541 122 L 797.5 122 L 801.5 124 L 840 159.5 L 841 161.5 L 841 249.5 L 838.5 253 L 815 274.5 L 842 275 L 842 441.5 L 807.5 478 Q 801.6 480.1 803 475.5 L 797.5 468 Q 792.4 463.7 781.5 465 Q 774.5 467 770.5 472 L 770 446 L 762.5 446 L 762 446.5 L 762 478 L 752 478 L 747.5 470 L 737.5 465 L 728.5 465 Q 718.1 467.1 713 474.5 L 712 478 L 694.5 478 L 694 473 L 703 473 L 703 466 L 694 466 L 694 448.5 L 691.5 450 L 685 453 L 685 465.5 L 683 466 L 682.5 454 L 669.5 466 L 662 466 L 662 472.5 L 656.5 478 L 648.5 478 L 648 477.5 L 648 446 L 639 446 L 639 478 L 570 478 L 571 471.5 L 575 462.5 L 580.5 457 Q 587.4 451.4 601.5 453 Q 609.8 454.7 614 460.5 L 617.5 468 L 625 466 Q 623.8 455 615.5 450 Q 606.7 443.8 590.5 445 L 575.5 450 L 567 458.5 L 561 472.5 L 561 478 L 522.5 478 L 522 475.5 L 526 466.5 L 517 466 L 512.5 478 L 492.5 478 L 492 476.5 L 487.5 466 L 479.5 466 L 479 467.5 L 483 478 L 461 477.5 L 465 474.5 Q 469.5 470 468 459.5 L 461.5 450 L 450.5 446 L 418 446 L 418 477.5 L 415 478 L 415 439.5 L 415.5 439 L 837.5 439 L 838 438.5 L 838 433 L 415.5 433 L 415 432.5 L 415 336 L 190.5 336 L 190 334.5 L 179 293.5 L 179 289 L 143 289 L 143 336 L 78 336 L 58 289.5 L 58 160.5 L 98.5 123 L 101.5 122 Z M 106 136 L 80 159 L 72 167 L 72 274 L 74 275 L 113 275 L 114 274 L 114 226 L 116 224 L 178 224 L 178 192 L 177 190 L 114 190 L 114 177 L 115 176 L 178 176 L 178 138 L 177 136 L 106 136 Z M 194 136 L 192 138 L 192 256 L 193 257 L 193 275 L 298 275 L 299 274 L 299 239 L 234 239 L 234 226 L 236 224 L 299 224 L 299 192 L 298 190 L 234 190 L 234 177 L 235 176 L 298 176 L 299 175 L 299 138 L 298 136 L 194 136 Z M 315 136 L 313 138 L 313 274 L 315 275 L 419 275 L 420 274 L 420 239 L 355 239 L 355 226 L 357 224 L 420 224 L 420 192 L 419 190 L 355 190 L 355 177 L 356 176 L 419 176 L 420 175 L 420 138 L 419 136 L 315 136 Z M 434 136 L 434 274 L 490 274 L 491 275 L 507 275 L 528 256 L 539 245 L 539 167 L 506 136 L 434 136 Z M 556 136 L 554 138 L 554 274 L 620 274 L 648 249 L 651 246 L 651 136 L 610 136 L 610 239 L 597 239 L 596 239 L 596 138 L 595 136 L 556 136 Z M 666 136 L 666 274 L 707 274 L 707 274 L 707 138 L 706 136 L 666 136 Z M 723 136 L 721 138 L 721 274 L 795 274 L 820 252 L 827 245 L 827 167 L 794 136 L 723 136 Z M 434 289 L 434 427 L 540 427 L 540 390 L 476 390 L 476 291 L 475 289 L 434 289 Z M 554 289 L 554 427 L 555 427 L 596 427 L 596 290 L 596 289 L 554 289 Z M 610 289 L 610 426 L 612 427 L 675 427 L 702 403 L 707 398 L 707 289 L 666 289 L 666 391 L 653 391 L 652 391 L 652 289 L 610 289 Z M 722 289 L 722 427 L 828 427 L 828 391 L 763 391 L 763 378 L 764 377 L 828 377 L 828 343 L 765 343 L 763 342 L 763 329 L 764 328 L 828 328 L 828 289 L 722 289 Z M 527 312 L 501 336 L 490 336 L 489 337 L 489 376 L 491 377 L 527 377 L 527 312 Z M 662 446 L 662 456 L 670 456 L 670 446 L 662 446 Z " /><path fill="rgb(0,0,0)" stroke="rgb(0,0,0)" stroke-width="1" opacity="1" d="M 479 176 L 492.5 176 L 493 176.5 L 493 239 L 479.5 239 L 479 238.5 L 479 176 Z " /><path fill="rgb(0,0,0)" stroke="rgb(0,0,0)" stroke-width="1" opacity="1" d="M 766 176 L 780.5 176 L 781 176.5 L 781 239 L 766.5 239 L 766 238.5 L 766 176 Z " /><path fill="rgb(0,0,0)" stroke="rgb(0,0,0)" stroke-width="1" opacity="1" d="M 427 454 L 448.5 454 Q 455.1 454.9 458 459.5 L 459 468.5 L 457 473 L 450.5 476 L 427 476 L 427 454 Z " /><path fill="rgb(0,0,0)" stroke="rgb(0,0,0)" stroke-width="1" opacity="1" d="M 731.5 472 Q 739.9 472.1 743 477.5 L 722.5 478 L 725.5 474 L 731.5 472 Z " /><path fill="rgb(0,0,0)" stroke="rgb(0,0,0)" stroke-width="1" opacity="1" d="M 683 473 L 685 473 L 685 478 L 683 478 L 683 473 Z " /><path fill="rgb(0,0,0)" stroke="rgb(0,0,0)" stroke-width="1" opacity="1" d="M 779.5 473 Q 791 471 794 477.5 L 773.5 478 L 775.5 475 L 779.5 473 Z " /><path fill="rgb(254,0,0)" stroke="rgb(254,0,0)" stroke-width="1" opacity="0.8941176470588236" d="M 56 433 L 837.5 433 L 838 433.5 L 838 439 L 56 440 L 56 433 Z " /><path fill="rgb(254,0,0)" stroke="rgb(254,0,0)" stroke-width="1" opacity="0.8941176470588236" d="M 590.5 445 Q 613.5 443.5 622 456.5 L 625 466 L 617.5 468 Q 615.6 460.9 610.5 457 Q 604.2 451.3 590.5 453 Q 580.1 455.1 575 462.5 Q 571 468.5 570 477.5 L 571 478.5 L 572 493.5 Q 574.2 500.8 579.5 505 Q 586 510.5 597.5 511 L 609.5 508 L 616 503.5 L 616 491 L 595 491 L 595 482 L 627 482 L 627 509.5 Q 619 516.5 606.5 519 L 587.5 519 Q 573.1 515.9 566 505.5 L 560 491.5 L 560 478.5 L 565 461.5 L 575.5 450 L 590.5 445 Z " /><path fill="rgb(254,0,0)" stroke="rgb(254,0,0)" stroke-width="1" opacity="0.8941176470588236" d="M 95 446 L 135.5 446 Q 143.8 448.2 148 454.5 Q 152.7 460.4 151 472.5 Q 148.8 480.9 142.5 485 L 138.5 487 L 127.5 489 L 106 489 L 106 518 L 95 518 L 95 446 Z M 106 455 L 106 480 L 126 480 L 136 477 L 140 470 Q 141 463 138 460 L 132 455 L 106 455 Z " /><path fill="rgb(254,0,0)" stroke="rgb(254,0,0)" stroke-width="1" opacity="0.8941176470588236" d="M 366 446 L 375.5 446 L 376 446.5 L 376 518 L 366.5 518 L 366 515.5 L 363.5 517 L 359.5 519 L 346.5 519 L 336 512.5 Q 327.5 503.5 330 483.5 Q 332.1 473.1 339.5 468 Q 345.3 462.8 358.5 465 L 366 469 L 366 446 Z M 351 473 L 347 475 L 343 479 L 340 488 Q 339 499 343 505 L 351 511 Q 358 512 361 509 L 365 504 L 367 496 L 366 485 L 364 480 L 357 473 L 351 473 Z " /><path fill="rgb(254,0,0)" stroke="rgb(254,0,0)" stroke-width="1" opacity="0.8941176470588236" d="M 418 446 L 450.5 446 L 461.5 450 L 465 453.5 Q 469.5 458 468 468.5 L 462.5 477 Q 459.5 476.2 461 480 Q 467.1 480.9 470 486.5 L 473 494.5 L 473 499.5 Q 471.4 508.1 467 513 L 455.5 518 L 417 518 L 418 446 Z M 427 454 L 427 476 L 451 476 L 457 473 L 459 469 L 458 460 Q 455 455 449 454 L 427 454 Z M 428 485 L 428 509 L 453 509 L 457 507 L 461 502 Q 462 493 459 490 L 452 485 L 428 485 Z " /><path fill="rgb(254,0,0)" stroke="rgb(254,0,0)" stroke-width="1" opacity="0.8941176470588236" d="M 639 446 L 647.5 446 L 648 446.5 L 648 477.5 L 649 478.5 L 649 518 L 638.5 518 L 638 517.5 L 638 478.5 L 639 477.5 L 639 446 Z " /><path fill="rgb(254,0,0)" stroke="rgb(254,0,0)" stroke-width="1" opacity="0.8941176470588236" d="M 662 446 L 670 446 L 670 456 L 662 456 L 662 446 Z " /><path fill="rgb(254,0,0)" stroke="rgb(254,0,0)" stroke-width="1" opacity="0.8941176470588236" d="M 762 446 L 769.5 446 L 770 446.5 L 770 471.5 L 773.5 469 Q 778.5 463.5 790.5 465 Q 797.4 466.6 801 471.5 L 805 482.5 L 805 518 L 794.5 518 L 794 517.5 L 794 480.5 L 793 478.5 L 794 477.5 L 790.5 474 Q 787 471.5 779.5 473 L 773 477.5 L 773 479.5 L 771 485.5 L 771 518 L 761.5 518 L 761 517.5 L 761 478.5 L 762 477.5 L 762 446 Z " /><path fill="rgb(254,0,0)" stroke="rgb(254,0,0)" stroke-width="1" opacity="0.8941176470588236" d="M 258.5 448 L 261 448.5 L 261 466 L 270 466 L 270 473 L 261.5 473 L 261 473.5 L 261 507.5 L 265.5 511 L 270 510 L 271 519 L 257.5 519 L 252 514.5 L 251 511.5 L 251 473 L 244.5 472 L 243 476 L 235.5 474 L 228 479.5 L 226 488.5 L 226 518 L 216.5 518 L 216 517.5 L 216 466 L 225 466 L 225 470.5 L 227 469.5 L 229.5 466 Q 233.3 463.3 241.5 465 L 244.5 467 L 251 466 L 251 453.5 L 253.5 451 L 258.5 448 Z " /><path fill="rgb(254,0,0)" stroke="rgb(254,0,0)" stroke-width="1" opacity="0.8941176470588236" d="M 693.5 448 L 694 466 L 703 466 L 703 473 L 694 473 L 694 477.5 L 695 478.5 L 695 508.5 L 696.5 510 L 698.5 511 L 704 510 L 705 517.5 L 703.5 519 L 691.5 519 L 686 515.5 L 684 505.5 L 684 478.5 L 685 473 L 678 473 L 678 466 L 685 466 L 685 453.5 L 686.5 453 L 693.5 448 Z " /><path fill="rgb(254,0,0)" stroke="rgb(254,0,0)" stroke-width="1" opacity="0.8941176470588236" d="M 175.5 465 L 189.5 465 Q 197.3 467.3 202 472.5 L 207 482.5 L 207 501.5 Q 204.8 509.3 199.5 514 Q 192 521.5 174.5 519 Q 166.5 516.5 162 510.5 L 158 501.5 L 157 489.5 L 159 479.5 Q 161.3 472.8 166.5 469 L 175.5 465 Z M 180 473 L 174 476 Q 169 480 168 487 Q 166 500 172 507 L 180 511 L 189 510 L 195 504 L 197 497 Q 198 486 195 481 L 189 474 L 180 473 Z " /><path fill="rgb(254,0,0)" stroke="rgb(254,0,0)" stroke-width="1" opacity="0.8941176470588236" d="M 292.5 465 Q 312.8 462.2 319 473.5 L 323 481.5 L 324 494 L 285.5 494 L 285 497.5 Q 286.8 505.2 292.5 509 Q 295.8 512.2 303.5 511 L 310 506.5 L 313.5 501 L 321.5 501 L 323 502.5 L 322 507.5 L 314.5 516 Q 307.3 521.3 292.5 519 Q 283.4 517.1 279 510.5 L 275 501.5 L 274 489.5 L 276 479.5 L 282.5 470 L 292.5 465 Z M 296 473 L 292 475 L 286 483 L 287 486 L 313 486 L 309 476 L 303 473 L 296 473 Z " /><path fill="rgb(254,0,0)" stroke="rgb(254,0,0)" stroke-width="1" opacity="0.8941176470588236" d="M 728.5 465 L 737.5 465 L 749 471.5 L 754 479.5 L 754 482 L 744.5 483 L 742 478.5 L 743 477.5 L 739.5 474 L 731.5 472 Q 724.9 472.9 722 477.5 Q 716.8 484.8 719 499.5 Q 720.8 506.7 726.5 510 L 735.5 511 L 742 506.5 L 745.5 499 Q 752.3 498.1 755 500 L 754 505.5 L 749 514 L 739.5 519 L 725.5 519 Q 716.4 516.5 712 509.5 L 708 497.5 L 708 486.5 L 710 478 Q 712.7 479.1 712 476.5 L 718.5 469 L 728.5 465 Z " /><path fill="rgb(254,0,0)" stroke="rgb(254,0,0)" stroke-width="1" opacity="0.8941176470588236" d="M 479 466 L 487.5 466 L 489 467.5 L 502.5 504 L 517 466 L 526 466.5 L 506 523.5 L 501 533.5 L 496.5 538 L 494.5 539 L 483.5 539 L 482 537.5 Q 483.5 532 481 530.5 L 490.5 530 L 495 525.5 L 497 520.5 L 497 516.5 L 482 478.5 L 483 476.5 L 479 466 Z " /><path fill="rgb(254,0,0)" stroke="rgb(254,0,0)" stroke-width="1" opacity="0.8941176470588236" d="M 662 466 L 670.5 466 L 671 466.5 L 671 518 L 661.5 518 L 661 517.5 L 661 474.5 L 662 473.5 L 662 466 Z " /></svg>